<?xml version="1.0" encoding="UTF-8"?>
<svg viewBox="0 0 100 100" xmlns="http://www.w3.org/2000/svg">
  <!-- Background -->
  <rect width="100" height="100" rx="15" fill="#000000"/>

  <!-- Neural network representation -->
  <!-- Central node -->
  <circle cx="50" cy="50" r="10" fill="#00FFFF"/>

  <!-- Outer nodes -->
  <circle cx="25" cy="25" r="6" fill="#9D4EDD"/>
  <circle cx="75" cy="25" r="6" fill="#9D4EDD"/>
  <circle cx="25" cy="75" r="6" fill="#9D4EDD"/>
  <circle cx="75" cy="75" r="6" fill="#9D4EDD"/>
  <circle cx="20" cy="50" r="6" fill="#9D4EDD"/>
  <circle cx="80" cy="50" r="6" fill="#9D4EDD"/>

  <!-- Neural connections -->
  <path d="M25 25 L50 50" stroke="#333333" stroke-width="2"/>
  <path d="M75 25 L50 50" stroke="#333333" stroke-width="2"/>
  <path d="M25 75 L50 50" stroke="#333333" stroke-width="2"/>
  <path d="M75 75 L50 50" stroke="#333333" stroke-width="2"/>
  <path d="M20 50 L50 50" stroke="#333333" stroke-width="2"/>
  <path d="M80 50 L50 50" stroke="#333333" stroke-width="2"/>

  <!-- Glowing connections (overlay) -->
  <path d="M25 25 L50 50" stroke="#00FFFF" stroke-width="1" stroke-opacity="0.4"/>
  <path d="M75 25 L50 50" stroke="#00FFFF" stroke-width="1" stroke-opacity="0.4"/>
  <path d="M25 75 L50 50" stroke="#00FFFF" stroke-width="1" stroke-opacity="0.4"/>
  <path d="M75 75 L50 50" stroke="#00FFFF" stroke-width="1" stroke-opacity="0.4"/>
  <path d="M20 50 L50 50" stroke="#00FFFF" stroke-width="1" stroke-opacity="0.4"/>
  <path d="M80 50 L50 50" stroke="#00FFFF" stroke-width="1" stroke-opacity="0.4"/>

  <!-- Animated pulse effect -->
  <circle cx="50" cy="50" r="20" fill="url(#pulse)" opacity="0.2">
    <animate attributeName="r" values="20;30;20" dur="3s" repeatCount="indefinite"/>
    <animate attributeName="opacity" values="0.2;0.05;0.2" dur="3s" repeatCount="indefinite"/>
  </circle>

  <!-- Initial H as subtle reference -->
  <path d="M38 30 L38 70 M38 50 L62 50 M62 30 L62 70"
        stroke="#FFFFFF"
        stroke-width="3"
        stroke-opacity="0.7"
        stroke-linecap="round"
        fill="none"/>

  <!-- Gradient definition -->
  <defs>
    <radialGradient id="pulse" cx="50%" cy="50%" r="50%" fx="50%" fy="50%">
      <stop offset="0%" stop-color="#00FFFF" stop-opacity="0.6"/>
      <stop offset="100%" stop-color="#00FFFF" stop-opacity="0"/>
    </radialGradient>
  </defs>
</svg>
